<?xml version="1.0" encoding="UTF-8"?>
<svg width="23px" height="22px" viewBox="0 0 23 22" version="1.1" xmlns="http://www.w3.org/2000/svg" xmlns:xlink="http://www.w3.org/1999/xlink">
    <!-- Generator: Sketch 63.1 (92452) - https://sketch.com -->
    <title>account</title>
    <desc>Created with Sketch.</desc>
    <g id="Page-1" stroke="none" stroke-width="1" fill="none" fill-rule="evenodd">
        <g id="Home---1" transform="translate(-338.000000, -2763.000000)" fill="#5E616C" fill-rule="nonzero">
            <g id="Bottom-Nav." transform="translate(0.000000, 2742.000000)">
                <g id="Group-20" transform="translate(42.000000, 19.000000)">
                    <g id="Group-4" transform="translate(282.300000, 2.000000)">
                        <g id="account" transform="translate(14.000000, 0.000000)">
                            <path d="M5.92307692,5.07692308 C5.92307692,2.27301589 8.19609281,0 11,0 C13.8039072,0 16.0769231,2.27301589 16.0769231,5.07692308 C16.0769231,7.88083027 13.8039072,10.1538462 11,10.1538462 C8.19609281,10.1538462 5.92307692,7.88083027 5.92307692,5.07692308 Z M19.4615385,22 L2.53846154,22 C1.13650794,22 0,20.8634921 0,19.4615385 C0,15.2556777 3.40952383,11.8461538 7.61538462,11.8461538 L14.3846154,11.8461538 C18.5904762,11.8461538 22,15.2556777 22,19.4615385 C22,20.8634921 20.8634921,22 19.4615385,22 Z" id="Shape"></path>
                        </g>
                    </g>
                </g>
            </g>
        </g>
    </g>
</svg>