<?xml version="1.0" encoding="UTF-8"?>
<svg width="18px" height="26px" viewBox="0 0 18 26" version="1.1" xmlns="http://www.w3.org/2000/svg" xmlns:xlink="http://www.w3.org/1999/xlink">
    <!-- Generator: Sketch 63.1 (92452) - https://sketch.com -->
    <title>noun-medal-1566889</title>
    <desc>Created with Sketch.</desc>
    <g id="Page-1" stroke="none" stroke-width="1" fill="none" fill-rule="evenodd">
        <g id="Contest-listing_Ongoing" transform="translate(-145.000000, -835.000000)" fill="#F6BF3E" fill-rule="nonzero">
            <g id="Bottom-Nav." transform="translate(0.000000, 816.000000)">
                <g id="Group-20" transform="translate(42.000000, 19.000000)">
                    <g id="Group-2" transform="translate(86.100000, 0.000000)">
                        <g id="noun-medal-1566889" transform="translate(17.000000, 0.000000)">
                            <path d="M15.9342568,18.4889189 C15.9342568,22.314527 12.8329054,25.4158784 9.0072973,25.4158784 C5.18144595,25.4158784 2.07972973,22.3142838 2.07972973,18.4889189 C2.07972973,14.6630676 5.18132432,11.5613514 9.0072973,11.5613514 C12.8331486,11.5613514 15.9342568,14.6629459 15.9342568,18.4889189" id="Path"></path>
                            <path d="M0.0498648649,0.00237162162 L9.58743243,0.00237162162 C8.00872297,2.73697297 6.4305,5.47084459 4.85179054,8.20575 C3.25100676,5.47114865 1.65040541,2.73727703 0.0496216216,0.00237162162 L0.0498648649,0.00237162162 Z" id="Path"></path>
                            <path d="M10.3506081,0.00237162162 L17.9641216,0.00237162162 C16.4155743,2.73697297 14.8675135,5.47084459 13.3184797,8.20575 L5.61496622,8.20575 C7.19367568,5.47114865 8.77189865,2.73727703 10.3510946,0.00237162162 L10.3506081,0.00237162162 Z" id="Path"></path>
                            <polygon id="Path" points="5.67972973 9.42689189 12.3348649 9.42689189 12.3348649 10.5359595 5.67972973 10.5359595"></polygon>
                        </g>
                    </g>
                </g>
            </g>
        </g>
    </g>
</svg>