<?xml version="1.0" encoding="UTF-8"?>
<svg width="23px" height="22px" viewBox="0 0 23 22" version="1.1" xmlns="http://www.w3.org/2000/svg" xmlns:xlink="http://www.w3.org/1999/xlink">
    <!-- Generator: Sketch 63.1 (92452) - https://sketch.com -->
    <title>noun-info-223370</title>
    <desc>Created with Sketch.</desc>
    <g id="Page-1" stroke="none" stroke-width="1" fill="none" fill-rule="evenodd">
        <g id="Home---1" transform="translate(-241.000000, -2763.000000)" fill="#5E616C" fill-rule="nonzero">
            <g id="Bottom-Nav." transform="translate(0.000000, 2742.000000)">
                <g id="Group-20" transform="translate(42.000000, 19.000000)">
                    <g id="Group-3" transform="translate(194.200000, 2.000000)">
                        <g id="noun-info-223370" transform="translate(5.000000, 0.000000)">
                            <path d="M3.22420309,3.24511668 C-1.0640962,7.53341597 -1.0640962,14.4874148 3.22420309,18.7757141 C7.51250239,23.0640134 14.4665012,23.0640134 18.7548005,18.7757141 C23.0430998,14.4874148 23.0430998,7.53341597 18.7548005,3.24511668 C14.4665012,-1.04318261 7.51250239,-1.04318261 3.22420309,3.24511668 Z M11.4299217,4.63599924 C12.3570388,4.63599924 13.0988815,5.40093911 13.0988815,6.32809756 C13.0988815,7.25521463 12.3339416,8.02019589 11.4299217,8.02019589 C10.5028047,8.02019589 9.73782341,7.25525602 9.73782341,6.30483478 C9.73782341,5.3778419 10.5026391,4.63604063 11.4299217,4.63604063 L11.4299217,4.63599924 Z M13.8174613,15.9710174 C13.7710558,16.1100725 13.6784062,16.272407 13.5855952,16.3650566 C12.9829566,16.9909579 12.2411554,17.3617137 11.3602327,17.3617137 C10.9430756,17.3617137 10.5488501,17.3617137 10.1316929,17.2921861 C9.45955584,17.1995365 8.6017718,16.365069 8.71771317,15.4841464 C8.81036279,14.8815079 8.90317384,14.2787452 8.99582346,13.6761067 C9.18128412,12.6330482 9.36674065,11.5666856 9.55218476,10.5236272 C9.55218476,10.4540996 9.57530639,10.3845721 9.57530639,10.3150445 C9.57530639,9.87458317 9.43625125,9.71240598 8.99580648,9.6660046 C8.81034582,9.64288297 8.62488929,9.61959907 8.43944518,9.57335498 C8.23086247,9.50382741 8.11493352,9.31836674 8.13805556,9.15619783 C8.16117719,8.97073717 8.2771107,8.85480821 8.50897275,8.80856412 C8.62490585,8.78544249 8.76396099,8.78544249 8.90301199,8.78544249 L10.4560717,8.78544249 L12.1019343,8.78544249 C12.4959735,8.78544249 12.7278355,8.97090315 12.7278355,9.36494239 C12.7278355,9.68945406 12.68143,10.0139823 12.6119024,10.3385022 C12.4033197,11.5439034 12.1714411,12.7260418 11.9628626,13.931443 C11.893335,14.3254823 11.8005239,14.7195215 11.7542798,15.1135814 C11.7311582,15.2990421 11.7542798,15.5076207 11.8006854,15.6930814 C11.8702129,15.9480696 12.0556736,16.0871206 12.3106453,16.0639985 C12.519228,16.0408769 12.7278024,15.9713489 12.9365466,15.8785379 C13.0988852,15.8090103 13.2379362,15.6930772 13.4001051,15.6466717 C13.6783768,15.5538606 13.8869678,15.7160378 13.8174278,15.9710219 L13.8174613,15.9710174 Z" id="Shape"></path>
                        </g>
                    </g>
                </g>
            </g>
        </g>
    </g>
</svg>